<svg width="18" height="18" viewBox="0 0 18 18" fill="none" xmlns="http://www.w3.org/2000/svg">
<g clip-path="url(#clip0_12_794)">
<path d="M2.2168 8.12635C2.2168 6.03716 2.2168 4.99183 2.86616 4.34321C3.51478 3.69385 4.56011 3.69385 6.6493 3.69385H8.1268C10.216 3.69385 11.2613 3.69385 11.9099 4.34321C12.5593 4.99183 12.5593 6.03716 12.5593 8.12635V11.8201C12.5593 13.9093 12.5593 14.9546 11.9099 15.6032C11.2613 16.2526 10.216 16.2526 8.1268 16.2526H6.6493C4.56011 16.2526 3.51478 16.2526 2.86616 15.6032C2.2168 14.9546 2.2168 13.9093 2.2168 11.8201V8.12635Z" stroke="black" stroke-width="1.5"/>
<path d="M5.94313 8.68937L6.22607 8.35176C6.76536 7.70905 7.03426 7.3877 7.38812 7.3877C7.74272 7.3877 8.01163 7.70905 8.55018 8.35176L8.83312 8.68937C9.34729 9.30327 9.60437 9.61059 9.60437 9.97332C9.60437 10.336 9.34729 10.6434 8.83312 11.2573L8.55018 11.5949C8.01089 12.2376 7.74199 12.5589 7.38812 12.5589C7.03352 12.5589 6.76462 12.2376 6.22607 11.5949L5.94313 11.2573C5.42896 10.6434 5.17188 10.336 5.17188 9.97332C5.17188 9.61059 5.42896 9.30327 5.94313 8.68937Z" stroke="black" stroke-width="1.5"/>
<path d="M12.5032 14.0363C13.3129 13.5835 13.5885 12.5884 14.1388 10.5989L14.9175 7.78427C15.4686 5.79481 15.7441 4.79972 15.2765 4.0159C14.8089 3.23209 13.7813 2.9654 11.7261 2.43202L10.2729 2.05526C8.21774 1.52188 7.19014 1.25519 6.38047 1.70805C5.80424 2.03014 5.49914 2.62705 5.17188 3.66278" stroke="black" stroke-width="1.5"/>
</g>
<defs>
<clipPath id="clip0_12_794">
<rect width="17.73" height="17.73" fill="white"/>
</clipPath>
</defs>
</svg>
