<svg width="21" height="18" viewBox="0 0 21 18" fill="none" xmlns="http://www.w3.org/2000/svg">
<g clip-path="url(#clip0_12_806)">
<path d="M9.78756 15.7996C9.90166 15.7996 10.0187 15.774 10.1386 15.7228C10.2585 15.6716 10.3554 15.609 10.4294 15.5351L17.2369 8.7267C17.4563 8.50724 17.6257 8.28312 17.7451 8.05434C17.8638 7.8244 17.9232 7.57233 17.9232 7.29815C17.9232 7.02047 17.8638 6.75094 17.7451 6.48956C17.6257 6.2276 17.4563 5.98892 17.2369 5.77353L13.9623 2.49902C13.7464 2.27956 13.5243 2.1186 13.2961 2.01614C13.0685 1.91369 12.8158 1.86246 12.5381 1.86246C12.264 1.86246 12.0093 1.91369 11.7741 2.01614C11.5389 2.1186 11.3174 2.27927 11.1096 2.49815L10.3482 3.25958L11.9636 4.87937C12.1371 5.04994 12.2666 5.24379 12.3522 5.46093C12.4371 5.67806 12.4796 5.8984 12.4796 6.12194C12.4796 6.57659 12.3309 6.95265 12.0334 7.25012C11.736 7.54759 11.3602 7.69603 10.9061 7.69545C10.682 7.69545 10.4634 7.6614 10.2504 7.59329C10.0373 7.52518 9.84548 7.40584 9.67492 7.23527L8.39044 5.95691C8.28973 5.8562 8.16108 5.80584 8.00448 5.80584C7.8473 5.80584 7.71836 5.8562 7.61765 5.95691L4.23399 9.34057C4.14609 9.42905 4.08002 9.52947 4.03578 9.64182C3.99153 9.75417 3.96941 9.86769 3.96941 9.98237C3.96941 10.1884 4.03549 10.3581 4.16763 10.4914C4.29919 10.6253 4.46801 10.6923 4.67409 10.6923C4.78819 10.6923 4.90519 10.6667 5.02511 10.6154C5.14503 10.5636 5.24196 10.5008 5.31589 10.4268L7.77396 7.96876C7.85545 7.88727 7.955 7.84273 8.07259 7.83517C8.19018 7.8276 8.29671 7.87213 8.39218 7.96876C8.48532 8.06191 8.5319 8.16494 8.5319 8.27788C8.5319 8.39081 8.48532 8.49385 8.39218 8.58699L5.93848 11.0451C5.85 11.1335 5.78364 11.234 5.73939 11.3463C5.69573 11.4592 5.6739 11.5728 5.6739 11.6869C5.6739 11.8819 5.7426 12.0481 5.87998 12.1855C6.01736 12.3228 6.18356 12.3918 6.37858 12.3924C6.49268 12.3924 6.60969 12.3665 6.72961 12.3147C6.84953 12.2629 6.94645 12.2003 7.02038 12.127L9.68016 9.47242C9.76166 9.39034 9.86091 9.34551 9.97792 9.33795C10.0949 9.33038 10.2015 9.37491 10.2975 9.47155C10.3907 9.56469 10.4372 9.66773 10.4372 9.78066C10.4372 9.89359 10.3907 9.99663 10.2975 10.0898L7.64298 12.7495C7.56613 12.8235 7.50268 12.9204 7.45262 13.0403C7.40255 13.1602 7.37752 13.2773 7.37752 13.3914C7.37752 13.5858 7.44651 13.7517 7.58447 13.8891C7.72244 14.0276 7.88864 14.0969 8.08307 14.0969C8.19717 14.0969 8.31068 14.0748 8.42362 14.0305C8.53655 13.9863 8.63668 13.9199 8.724 13.8314L11.3846 11.1769C11.4661 11.0948 11.5654 11.05 11.6824 11.0424C11.7994 11.0355 11.9062 11.08 12.0029 11.176C12.0954 11.2692 12.1417 11.3722 12.1417 11.4852C12.1417 11.5981 12.0951 11.7011 12.002 11.7943L9.3431 14.4532C9.2552 14.5417 9.18913 14.6479 9.14488 14.7719C9.10064 14.8959 9.07852 15.0091 9.07852 15.1116C9.07852 15.3176 9.151 15.4838 9.29595 15.6102C9.4409 15.7365 9.60506 15.7996 9.78843 15.7996M9.78319 16.6728C9.33437 16.6728 8.95016 16.5087 8.63057 16.1804C8.31098 15.852 8.17068 15.4463 8.20968 14.9631C7.71487 14.9689 7.30301 14.8214 6.9741 14.5204C6.6452 14.2194 6.48889 13.7991 6.50519 13.2595C5.96614 13.2653 5.54118 13.1111 5.23032 12.7967C4.91946 12.4823 4.778 12.0685 4.80594 11.555C4.32044 11.5608 3.91411 11.424 3.58695 11.1446C3.26037 10.8663 3.09708 10.4786 3.09708 9.9815C3.09708 9.75737 3.14045 9.53325 3.22719 9.30913C3.31393 9.08443 3.442 8.88708 3.6114 8.7171L7.01252 5.31598C7.28031 5.04878 7.61038 4.91518 8.00274 4.91518C8.39509 4.91518 8.72516 5.04907 8.99295 5.31685L10.26 6.58387C10.3339 6.66129 10.4253 6.72503 10.5341 6.7751C10.643 6.82516 10.7655 6.8499 10.9018 6.84932C11.0886 6.84932 11.2537 6.78412 11.3969 6.65372C11.5401 6.52332 11.612 6.35334 11.6126 6.14377C11.6126 6.00755 11.5875 5.8853 11.5375 5.77703C11.4874 5.66817 11.4239 5.57677 11.3471 5.50284L8.34328 2.49902C8.12673 2.27956 7.90173 2.1186 7.6683 2.01614C7.43486 1.91369 7.17931 1.86246 6.90163 1.86246C6.62744 1.86246 6.37829 1.91369 6.15417 2.01614C5.93063 2.1186 5.70912 2.27956 5.48966 2.49902L2.83076 5.16229C2.52572 5.46675 2.32954 5.83844 2.24222 6.27737C2.1549 6.7163 2.19477 7.13544 2.36185 7.53478C2.39445 7.64772 2.37989 7.75687 2.31819 7.86223C2.25648 7.9676 2.16916 8.03455 2.05623 8.06307C1.94329 8.0916 1.83123 8.07646 1.72004 8.01766C1.60886 7.95887 1.539 7.87242 1.51047 7.75832C1.32245 7.19365 1.2814 6.62345 1.38735 6.04772C1.4933 5.47199 1.76691 4.96349 2.20816 4.52223L4.84873 1.8808C5.15318 1.57925 5.4754 1.35513 5.81536 1.20843C6.15533 1.06232 6.52295 0.989258 6.91822 0.989258C7.31349 0.989258 7.6779 1.06261 8.01147 1.2093C8.34561 1.35542 8.66346 1.57925 8.965 1.8808L9.72469 2.64136L10.4861 1.8808C10.7906 1.57925 11.1099 1.35513 11.444 1.20843C11.7782 1.06232 12.1429 0.989258 12.5381 0.989258C12.9334 0.989258 13.301 1.06261 13.641 1.2093C13.9804 1.35542 14.3006 1.57925 14.6015 1.8808L17.8551 5.13348C18.156 5.43444 18.3883 5.77237 18.5519 6.14726C18.7155 6.52216 18.797 6.90724 18.7964 7.30251C18.7964 7.69836 18.7149 8.06307 18.5519 8.39663C18.3889 8.7302 18.1566 9.04804 17.8551 9.35017L11.0467 16.1524C10.8657 16.334 10.6683 16.4662 10.4547 16.5489C10.2416 16.6315 10.0184 16.6728 9.78319 16.6728Z" fill="black"/>
<path d="M9.78756 15.7996C9.90166 15.7996 10.0187 15.774 10.1386 15.7228C10.2585 15.6716 10.3554 15.609 10.4294 15.5351L17.2369 8.7267C17.4563 8.50724 17.6257 8.28312 17.7451 8.05434C17.8638 7.8244 17.9232 7.57233 17.9232 7.29815C17.9232 7.02047 17.8638 6.75094 17.7451 6.48956C17.6257 6.2276 17.4563 5.98892 17.2369 5.77353L13.9623 2.49902C13.7464 2.27956 13.5243 2.1186 13.2961 2.01614C13.0685 1.91369 12.8158 1.86246 12.5381 1.86246C12.264 1.86246 12.0093 1.91369 11.7741 2.01614C11.5389 2.1186 11.3174 2.27927 11.1096 2.49815L10.3482 3.25958L11.9636 4.87937C12.1371 5.04994 12.2666 5.24379 12.3522 5.46093C12.4371 5.67806 12.4796 5.8984 12.4796 6.12194C12.4796 6.57659 12.3309 6.95265 12.0334 7.25012C11.736 7.54759 11.3602 7.69603 10.9061 7.69545C10.682 7.69545 10.4634 7.6614 10.2504 7.59329C10.0373 7.52518 9.84548 7.40584 9.67492 7.23527L8.39044 5.95691C8.28973 5.8562 8.16108 5.80584 8.00448 5.80584C7.8473 5.80584 7.71836 5.8562 7.61765 5.95691L4.23399 9.34057C4.14609 9.42905 4.08002 9.52947 4.03578 9.64182C3.99153 9.75417 3.96941 9.86769 3.96941 9.98237C3.96941 10.1884 4.03549 10.3581 4.16763 10.4914C4.29919 10.6253 4.46801 10.6923 4.67409 10.6923C4.78819 10.6923 4.90519 10.6667 5.02511 10.6154C5.14503 10.5636 5.24196 10.5008 5.31589 10.4268L7.77396 7.96876C7.85545 7.88727 7.955 7.84273 8.07259 7.83517C8.19018 7.8276 8.29671 7.87213 8.39218 7.96876C8.48532 8.06191 8.5319 8.16494 8.5319 8.27788C8.5319 8.39081 8.48532 8.49385 8.39218 8.58699L5.93848 11.0451C5.85 11.1335 5.78364 11.234 5.73939 11.3463C5.69573 11.4592 5.6739 11.5728 5.6739 11.6869C5.6739 11.8819 5.7426 12.0481 5.87998 12.1855C6.01736 12.3228 6.18356 12.3918 6.37858 12.3924C6.49268 12.3924 6.60969 12.3665 6.72961 12.3147C6.84953 12.2629 6.94645 12.2003 7.02038 12.127L9.68016 9.47242C9.76166 9.39034 9.86091 9.34551 9.97792 9.33795C10.0949 9.33038 10.2015 9.37491 10.2975 9.47155C10.3907 9.56469 10.4372 9.66773 10.4372 9.78066C10.4372 9.89359 10.3907 9.99663 10.2975 10.0898L7.64298 12.7495C7.56613 12.8235 7.50268 12.9204 7.45262 13.0403C7.40255 13.1602 7.37752 13.2773 7.37752 13.3914C7.37752 13.5858 7.4465 13.7517 7.58447 13.8891C7.72244 14.0276 7.88864 14.0969 8.08307 14.0969C8.19717 14.0969 8.31068 14.0748 8.42362 14.0305C8.53655 13.9863 8.63668 13.9199 8.724 13.8314L11.3846 11.1769C11.4661 11.0948 11.5654 11.05 11.6824 11.0424C11.7994 11.0355 11.9062 11.08 12.0029 11.176C12.0954 11.2692 12.1417 11.3722 12.1417 11.4852C12.1417 11.5981 12.0951 11.7011 12.002 11.7943L9.3431 14.4532C9.2552 14.5417 9.18913 14.6479 9.14488 14.7719C9.10064 14.8959 9.07852 15.0091 9.07852 15.1116C9.07852 15.3176 9.151 15.4838 9.29595 15.6102C9.4409 15.7365 9.60506 15.7996 9.78843 15.7996M9.78319 16.6728C9.33437 16.6728 8.95016 16.5087 8.63057 16.1804C8.31098 15.852 8.17068 15.4463 8.20968 14.9631C7.71487 14.9689 7.30301 14.8214 6.9741 14.5204C6.6452 14.2194 6.48889 13.7991 6.50519 13.2595C5.96614 13.2653 5.54118 13.1111 5.23032 12.7967C4.91946 12.4823 4.778 12.0685 4.80594 11.555C4.32044 11.5608 3.91411 11.424 3.58695 11.1446C3.26037 10.8663 3.09708 10.4786 3.09708 9.9815C3.09708 9.75737 3.14045 9.53325 3.22719 9.30913C3.31393 9.08443 3.442 8.88708 3.6114 8.7171L7.01252 5.31598C7.28031 5.04878 7.61038 4.91518 8.00273 4.91518C8.39509 4.91518 8.72516 5.04907 8.99295 5.31685L10.26 6.58387C10.3339 6.66129 10.4253 6.72503 10.5341 6.7751C10.643 6.82516 10.7655 6.8499 10.9018 6.84932C11.0886 6.84932 11.2537 6.78412 11.3969 6.65372C11.5401 6.52332 11.612 6.35334 11.6126 6.14377C11.6126 6.00755 11.5875 5.8853 11.5375 5.77703C11.4874 5.66817 11.4239 5.57677 11.3471 5.50284L8.34328 2.49902C8.12673 2.27956 7.90173 2.1186 7.6683 2.01614C7.43486 1.91369 7.17931 1.86246 6.90163 1.86246C6.62744 1.86246 6.37829 1.91369 6.15417 2.01614C5.93063 2.1186 5.70912 2.27956 5.48966 2.49902L2.83076 5.16229C2.52572 5.46675 2.32954 5.83844 2.24222 6.27737C2.1549 6.7163 2.19477 7.13544 2.36185 7.53478C2.39445 7.64772 2.37989 7.75687 2.31819 7.86223C2.25648 7.9676 2.16916 8.03455 2.05623 8.06307C1.94329 8.0916 1.83123 8.07646 1.72004 8.01766C1.60886 7.95887 1.539 7.87242 1.51047 7.75832C1.32245 7.19365 1.2814 6.62345 1.38735 6.04772C1.4933 5.47199 1.76691 4.96349 2.20816 4.52223L4.84873 1.8808C5.15318 1.57925 5.4754 1.35513 5.81536 1.20843C6.15533 1.06232 6.52295 0.989258 6.91822 0.989258C7.31349 0.989258 7.6779 1.06261 8.01147 1.2093C8.34561 1.35542 8.66346 1.57925 8.965 1.8808L9.72469 2.64136L10.4861 1.8808C10.7906 1.57925 11.1099 1.35513 11.444 1.20843C11.7782 1.06232 12.1429 0.989258 12.5381 0.989258C12.9334 0.989258 13.301 1.06261 13.641 1.2093C13.9804 1.35542 14.3006 1.57925 14.6015 1.8808L17.8551 5.13348C18.156 5.43444 18.3883 5.77237 18.5519 6.14726C18.7155 6.52216 18.797 6.90724 18.7964 7.30251C18.7964 7.69836 18.7149 8.06307 18.5519 8.39663C18.3889 8.7302 18.1566 9.04804 17.8551 9.35017L11.0467 16.1524C10.8657 16.334 10.6683 16.4662 10.4547 16.5489C10.2416 16.6315 10.0184 16.6728 9.78319 16.6728Z" stroke="black" stroke-width="0.5"/>
</g>
<defs>
<clipPath id="clip0_12_806">
<rect width="20.094" height="17.73" fill="white"/>
</clipPath>
</defs>
</svg>
