<svg width="18" height="18" viewBox="0 0 18 18" fill="none" xmlns="http://www.w3.org/2000/svg">
<g clip-path="url(#clip0_12_830)">
<path d="M16.6086 13.8419L13.8008 11.034L11.6411 10.1417C12.3602 9.11909 12.7455 7.89907 12.7441 6.64889C12.7441 3.28826 10.01 0.554199 6.64937 0.554199C3.28874 0.554199 0.554688 3.28826 0.554688 6.64889C0.554688 10.0095 3.28874 12.7436 6.64937 12.7436C7.91043 12.745 9.14054 12.3531 10.1683 11.6224L11.0583 13.7763L13.866 16.5843C14.0461 16.7644 14.2599 16.9072 14.4952 17.0047C14.7304 17.1022 14.9826 17.1523 15.2373 17.1523C15.4919 17.1523 15.7441 17.1022 15.9794 17.0047C16.2147 16.9073 16.4285 16.7645 16.6086 16.5844C16.7886 16.4043 16.9315 16.1905 17.029 15.9553C17.1264 15.72 17.1766 15.4678 17.1766 15.2131C17.1766 14.9585 17.1265 14.7063 17.029 14.471C16.9316 14.2357 16.7887 14.0219 16.6086 13.8419ZM1.66281 6.64889C1.66281 3.89935 3.89984 1.66232 6.64937 1.66232C9.39891 1.66232 11.6359 3.89935 11.6359 6.64889C11.6359 9.39842 9.39891 11.6354 6.64937 11.6354C3.89984 11.6354 1.66281 9.39842 1.66281 6.64889ZM15.825 15.8008C15.669 15.9564 15.4577 16.0438 15.2373 16.0438C15.017 16.0438 14.8057 15.9564 14.6497 15.8008L11.9981 13.1491L11.1706 11.1464L13.1735 11.9738L15.8251 14.6254C15.9807 14.7814 16.0681 14.9928 16.0681 15.2131C16.068 15.4334 15.9806 15.6448 15.825 15.8008Z" fill="black" stroke="black" stroke-width="0.2"/>
</g>
<defs>
<clipPath id="clip0_12_830">
<rect width="17.73" height="17.73" fill="white"/>
</clipPath>
</defs>
</svg>
