<svg width="18" height="18" viewBox="0 0 18 18" fill="none" xmlns="http://www.w3.org/2000/svg">
<g clip-path="url(#clip0_12_819)">
<path fill-rule="evenodd" clip-rule="evenodd" d="M0.635855 4.5434C0.445731 4.63283 0.284981 4.77451 0.172386 4.95189C0.0597905 5.12928 0 5.33505 0 5.54515C0 5.75525 0.0597905 5.96102 0.172386 6.1384C0.284981 6.31579 0.445731 6.45747 0.635855 6.54689L2.22047 7.29488V11.6387C2.22047 12.461 2.48753 13.3785 3.26654 13.9436C4.24834 14.6528 6.03686 15.5172 8.87366 15.5172C11.7105 15.5172 13.4945 14.6473 14.4808 13.9436C15.2598 13.3807 15.5268 12.4698 15.5268 11.6387V7.29488L16.635 6.77074V11.6354C16.635 11.7824 16.6933 11.9233 16.7972 12.0272C16.9012 12.1311 17.0421 12.1895 17.189 12.1895C17.336 12.1895 17.4769 12.1311 17.5808 12.0272C17.6847 11.9233 17.7431 11.7824 17.7431 11.6354V5.54072C17.7431 5.33086 17.6836 5.1253 17.5714 4.94796C17.4592 4.77062 17.2989 4.62879 17.1092 4.53897L10.7708 1.54703C10.1784 1.26689 9.53119 1.12158 8.87587 1.12158C8.22056 1.12158 7.57339 1.26689 6.98098 1.54703L0.642504 4.53897L0.635855 4.5434ZM3.3286 11.6354V7.81237L6.97433 9.54105C7.56675 9.82119 8.21391 9.9665 8.86922 9.9665C9.52454 9.9665 10.1717 9.82119 10.7641 9.54105L14.4098 7.81237V11.6354C14.4098 12.2515 14.2104 12.7546 13.8225 13.0316C13.0203 13.6112 11.4622 14.4057 8.86922 14.4057C6.27621 14.4057 4.71376 13.6167 3.9159 13.0316C3.52917 12.7524 3.3286 12.246 3.3286 11.6354ZM7.45082 2.54878C7.89418 2.33876 8.37864 2.22982 8.86922 2.22982C9.35981 2.22982 9.84427 2.33876 10.2876 2.54878L16.6261 5.54072L10.2876 8.53265C9.84427 8.74267 9.35981 8.85161 8.86922 8.85161C8.37864 8.85161 7.89418 8.74267 7.45082 8.53265L1.11235 5.54072L7.45082 2.54878Z" fill="black"/>
</g>
<defs>
<clipPath id="clip0_12_819">
<rect width="17.73" height="17.73" fill="white"/>
</clipPath>
</defs>
</svg>
