<svg width="18" height="18" viewBox="0 0 18 18" fill="none" xmlns="http://www.w3.org/2000/svg">
<g clip-path="url(#clip0_12_790)">
<path d="M4.18001 8.12777L3.09404 10.5716C1.72292 13.6551 1.0381 15.1969 1.78646 15.9452C2.53481 16.6936 4.0751 16.008 7.15865 14.6376L9.60391 13.5502C11.4633 12.7235 12.3934 12.3106 12.5412 11.5135C12.6889 10.7163 11.9694 9.9968 10.5303 8.55846L9.17248 7.1999C7.73413 5.76081 7.01459 5.04127 6.21748 5.18976C5.42037 5.33751 5.00741 6.26759 4.18075 8.12703M4.80203 7.75691L9.97328 12.9282M3.32453 11.4507L6.27953 14.4057M11.8202 5.91004L14.0364 3.69379M10.4882 1.47754C10.7837 1.97029 11.0194 3.25054 9.60391 4.43254M16.2527 7.24201C15.7599 6.94651 14.4797 6.71084 13.2977 8.12629M13.2977 1.47754V1.49231M16.2527 4.43254V4.44731M15.5139 9.60379V9.61856M8.12641 2.21629V2.23106" stroke="black" stroke-width="1.5" stroke-linecap="round" stroke-linejoin="round"/>
</g>
<defs>
<clipPath id="clip0_12_790">
<rect width="17.73" height="17.73" fill="white"/>
</clipPath>
</defs>
</svg>
