<svg width="18" height="18" viewBox="0 0 18 18" fill="none" xmlns="http://www.w3.org/2000/svg">
<g clip-path="url(#clip0_12_802)">
<path d="M5.1718 3.69377C5.1718 2.91005 5.48313 2.15844 6.0373 1.60427C6.59147 1.0501 7.34308 0.73877 8.1268 0.73877C8.91051 0.73877 9.66213 1.0501 10.2163 1.60427C10.7705 2.15844 11.0818 2.91005 11.0818 3.69377H13.298C13.494 3.69377 13.6819 3.7716 13.8204 3.91014C13.959 4.04869 14.0368 4.23659 14.0368 4.43252V6.64877C14.8205 6.64877 15.5721 6.9601 16.1263 7.51427C16.6805 8.06844 16.9918 8.82006 16.9918 9.60377C16.9918 10.3875 16.6805 11.1391 16.1263 11.6933C15.5721 12.2474 14.8205 12.5588 14.0368 12.5588V14.775C14.0368 14.9709 13.959 15.1589 13.8204 15.2974C13.6819 15.4359 13.494 15.5138 13.298 15.5138H2.95555C2.75962 15.5138 2.57171 15.4359 2.43317 15.2974C2.29463 15.1589 2.2168 14.9709 2.2168 14.775V4.43252C2.2168 4.23659 2.29463 4.04869 2.43317 3.91014C2.57171 3.7716 2.75962 3.69377 2.95555 3.69377H5.1718ZM8.1268 2.21627C7.89037 2.21621 7.65739 2.27289 7.44741 2.38154C7.23743 2.4902 7.05659 2.64766 6.92008 2.84069C6.78358 3.03373 6.69539 3.2567 6.66292 3.49089C6.63046 3.72507 6.65467 3.96363 6.73351 4.18652C6.77289 4.298 6.78492 4.4173 6.76862 4.5344C6.75231 4.6515 6.70814 4.76298 6.63981 4.85947C6.57148 4.95595 6.48099 5.03463 6.37595 5.08889C6.2709 5.14314 6.15436 5.1714 6.03613 5.17127H3.6943V14.0363H12.5593V11.6944C12.5592 11.5762 12.5874 11.4597 12.6417 11.3546C12.6959 11.2496 12.7746 11.1591 12.8711 11.0908C12.9676 11.0224 13.0791 10.9783 13.1962 10.9619C13.3133 10.9456 13.4326 10.9577 13.5441 10.9971C13.6982 11.0532 13.8625 11.0813 14.0368 11.0813C14.2519 11.0811 14.4644 11.034 14.6594 10.9432C14.8544 10.8524 15.0272 10.7202 15.1658 10.5557C15.3043 10.3912 15.4053 10.1984 15.4617 9.99079C15.518 9.7832 15.5283 9.56582 15.492 9.35382C15.4556 9.14183 15.3733 8.94033 15.251 8.76342C15.1287 8.5865 14.9692 8.43843 14.7837 8.32955C14.5982 8.22067 14.3911 8.1536 14.177 8.13304C13.9629 8.11247 13.7469 8.13891 13.5441 8.21049C13.4326 8.24986 13.3133 8.2619 13.1962 8.24559C13.0791 8.22929 12.9676 8.18511 12.8711 8.11678C12.7746 8.04845 12.6959 7.95796 12.6417 7.85292C12.5874 7.74787 12.5592 7.63134 12.5593 7.51311V5.17127H10.2175C10.0992 5.1714 9.98269 5.14314 9.87765 5.08889C9.7726 5.03463 9.68211 4.95595 9.61378 4.85947C9.54545 4.76298 9.50128 4.6515 9.48498 4.5344C9.46867 4.4173 9.48071 4.298 9.52008 4.18652C9.57622 4.03286 9.6043 3.86861 9.6043 3.69377C9.6043 3.30191 9.44863 2.9261 9.17155 2.64902C8.89446 2.37193 8.51865 2.21627 8.1268 2.21627Z" fill="black"/>
</g>
<defs>
<clipPath id="clip0_12_802">
<rect width="17.73" height="17.73" fill="white"/>
</clipPath>
</defs>
</svg>
