<svg width="18" height="18" viewBox="0 0 18 18" fill="none" xmlns="http://www.w3.org/2000/svg">
<g clip-path="url(#clip0_12_810)">
<path fill-rule="evenodd" clip-rule="evenodd" d="M16.6671 8.47643C16.4781 8.29496 16.2273 8.19199 15.9653 8.18831C14.0534 8.1366 12.1637 8.09228 10.2592 8.05534L1.70449 7.92236C1.39273 7.92236 1.0928 8.03835 0.862311 8.24741C0.634776 8.46165 0.497369 8.75493 0.478161 9.06669C0.433836 9.8867 0.389511 10.9342 0.359961 11.9456C0.359961 13.0678 0.315636 14.1596 0.315636 14.8319C0.304801 15.2293 0.322039 15.6256 0.367349 16.0205C0.41389 16.3471 0.552036 16.6544 0.766274 16.9063C1.07581 17.224 1.4703 17.4448 1.90395 17.5409C2.75771 17.6986 3.62672 17.7581 4.49401 17.7182H7.06412C9.04988 17.7182 11.0356 17.6 13.0207 17.5631C13.7107 17.5896 14.4021 17.5631 15.0877 17.4818C15.6151 17.4021 16.0982 17.1409 16.4536 16.743C16.6996 16.4498 16.8762 16.104 16.9708 15.7324C17.0838 15.2088 17.1358 14.6738 17.1259 14.1382V11.1847C17.0594 9.23586 17.0299 8.8591 16.6679 8.47495M16.5349 14.1293C16.5423 14.6258 16.4906 15.1215 16.3798 15.6054C16.3106 15.8921 16.1738 16.158 15.9808 16.3811C15.7134 16.6544 15.3581 16.8243 14.9769 16.8605C14.3238 16.9115 13.6671 16.9115 13.014 16.8605C11.0283 16.8605 9.04249 16.9196 7.05673 16.9196C6.20717 16.9196 5.36647 16.9196 4.51691 16.8827C3.81904 16.8974 3.12289 16.8679 2.42846 16.794C2.04015 16.7665 1.67278 16.6075 1.38682 16.3434C1.27762 16.2075 1.20876 16.0437 1.1881 15.8706C1.15067 15.5175 1.13836 15.1633 1.15116 14.8083V12.5344C1.15116 11.3605 1.21026 10.0618 1.25459 9.10215C1.25578 8.99093 1.30093 8.88469 1.38018 8.80665C1.46065 8.73202 1.56594 8.68991 1.67568 8.68845C4.62772 8.68845 7.4623 8.63673 10.2378 8.62935H15.9365C16.0843 8.62935 16.2268 8.68401 16.3354 8.78448C16.5275 8.96178 16.5423 8.99872 16.5497 11.147C16.5712 12.1411 16.5662 13.1355 16.5349 14.1293Z" fill="black"/>
<path d="M16.6671 8.47643C16.4781 8.29496 16.2273 8.19199 15.9653 8.18831C14.0534 8.1366 12.1637 8.09228 10.2592 8.05534L1.70449 7.92236C1.39273 7.92236 1.0928 8.03835 0.862311 8.24741C0.634776 8.46165 0.497369 8.75493 0.478161 9.06669C0.433836 9.8867 0.389511 10.9342 0.359961 11.9456C0.359961 13.0678 0.315636 14.1596 0.315636 14.8319C0.304801 15.2293 0.322039 15.6256 0.367349 16.0205C0.41389 16.3471 0.552036 16.6544 0.766274 16.9063C1.07581 17.224 1.4703 17.4449 1.90395 17.5409C2.75771 17.6986 3.62672 17.7581 4.49401 17.7182H7.06412C9.04988 17.7182 11.0356 17.6 13.0207 17.5631C13.7107 17.5896 14.4021 17.5631 15.0877 17.4818C15.6151 17.4021 16.0982 17.1409 16.4536 16.743C16.6996 16.4498 16.8762 16.104 16.9708 15.7324C17.0838 15.2088 17.1358 14.6738 17.1259 14.1382V11.1847C17.0594 9.23586 17.0299 8.8591 16.6679 8.47495M16.5349 14.1293C16.5423 14.6258 16.4906 15.1215 16.3798 15.6054C16.3106 15.8921 16.1738 16.158 15.9808 16.3811C15.7134 16.6544 15.3581 16.8243 14.9769 16.8605C14.3238 16.9115 13.6671 16.9115 13.014 16.8605C11.0283 16.8605 9.04249 16.9196 7.05673 16.9196C6.20717 16.9196 5.36647 16.9196 4.51691 16.8827C3.81904 16.8974 3.12289 16.8679 2.42846 16.794C2.04015 16.7665 1.67278 16.6075 1.38682 16.3434C1.27762 16.2075 1.20876 16.0437 1.1881 15.8706C1.15067 15.5175 1.13836 15.1633 1.15116 14.8083V12.5344C1.15116 11.3605 1.21026 10.0618 1.25459 9.10215C1.25578 8.99093 1.30093 8.88469 1.38018 8.80665C1.46065 8.73202 1.56594 8.68991 1.67568 8.68845C4.62772 8.68845 7.4623 8.63673 10.2378 8.62935H15.9365C16.0843 8.62935 16.2268 8.68401 16.3354 8.78448C16.5275 8.96178 16.5423 8.99872 16.5497 11.147C16.5712 12.1411 16.5662 13.1355 16.5349 14.1293Z" stroke="black" stroke-width="0.4"/>
<path fill-rule="evenodd" clip-rule="evenodd" d="M15.2707 10.1593C15.2633 10.0947 15.2318 10.0352 15.1825 9.9928C15.1332 9.95035 15.0698 9.92805 15.0047 9.93033C14.9461 9.93655 14.8914 9.96261 14.8496 10.0042C14.0599 9.96726 13.2849 9.90816 12.51 9.886H10.8419C10.7792 9.89054 10.72 9.91653 10.6743 9.95958C10.6286 10.0026 10.599 10.0601 10.5907 10.1224C10.5798 10.3255 10.5178 10.5226 10.4107 10.6954C10.3035 10.8683 10.1546 11.0114 9.97755 11.1116C9.56378 11.2789 9.11536 11.3423 8.67144 11.2963C8.44062 11.2932 8.2106 11.2684 7.9844 11.2224C7.79837 11.1867 7.62815 11.0937 7.49756 10.9565C7.41431 10.8511 7.35847 10.7267 7.33504 10.5945C7.30265 10.4239 7.28534 10.2509 7.28333 10.0773C7.27563 9.98539 7.23311 9.89984 7.16446 9.83819C7.0958 9.77654 7.0062 9.74344 6.91395 9.74564C5.88857 9.74564 4.86244 9.69393 3.84371 9.74564C3.38864 9.75894 2.93603 9.79834 2.48588 9.86384C2.38931 9.87956 2.30143 9.92901 2.23786 10.0034C2.17429 10.0778 2.13915 10.1723 2.13867 10.2702V12.3734C2.13867 12.8092 2.13867 13.2673 2.20516 13.7836C2.21353 14.1432 2.25047 14.5 2.31597 14.8541C2.38689 15.126 2.51839 15.3779 2.70012 15.5928C3.02886 15.958 3.48079 16.189 3.96929 16.2415C4.55365 16.2895 5.14169 16.2895 5.72604 16.2415C7.06983 16.2415 8.41288 16.2415 9.74927 16.1971C10.6498 16.1971 11.5503 16.1528 12.4509 16.1011C13.064 16.1218 13.6779 16.0745 14.2815 15.9607C14.5873 15.892 14.8651 15.7325 15.0794 15.5035C15.2951 15.2464 15.4384 14.9346 15.4923 14.6029C15.5366 14.1774 15.5366 13.7516 15.4923 13.3256L15.2707 10.1593ZM3.87326 10.5213C4.78192 10.4696 5.6891 10.5213 6.60442 10.477C6.62559 10.6174 6.65761 10.755 6.70045 10.89C6.75881 11.0857 6.86298 11.2652 7.00334 11.4145C7.18353 11.6029 7.41037 11.7403 7.66083 11.8127C7.98736 11.9006 8.3257 11.9382 8.66405 11.9235C9.33044 11.9882 9.99804 11.8127 10.5464 11.4285C10.8271 11.1589 11.0088 10.8028 11.0635 10.4172H12.4657C13.2044 10.4172 13.986 10.4172 14.7543 10.4763L14.8799 13.1417C13.3092 12.9505 11.7301 12.8371 10.1482 12.8018H7.15774C5.76224 12.8388 4.36748 12.92 2.97937 12.9496V10.6159C3.26009 10.5568 3.57037 10.5346 3.87326 10.5198M14.8873 14.4906C14.8541 14.706 14.7621 14.9079 14.6213 15.0742C14.4216 15.265 14.1586 15.3755 13.8826 15.3845C13.3916 15.4239 12.8995 15.4362 12.4066 15.4215H10.3986C8.83396 15.4215 7.26929 15.4215 5.70388 15.3845C5.16366 15.4318 4.62033 15.4318 4.08011 15.3845C3.80206 15.3597 3.5411 15.2397 3.34136 15.0447C3.24396 14.9221 3.17802 14.7775 3.14928 14.6236C3.09242 14.3193 3.063 14.0105 3.06137 13.7009V13.3832C4.60388 13.4793 6.15452 13.5605 7.7118 13.5753H10.6646C12.0822 13.5753 13.5066 13.5753 14.9168 13.627C14.9427 13.9151 14.9331 14.2047 14.8873 14.4906Z" fill="black"/>
<path d="M3.87326 10.5213C4.78192 10.4696 5.6891 10.5213 6.60442 10.477C6.62559 10.6174 6.65761 10.755 6.70045 10.89C6.75881 11.0857 6.86298 11.2652 7.00334 11.4145C7.18353 11.6029 7.41037 11.7403 7.66083 11.8127C7.98736 11.9006 8.3257 11.9382 8.66405 11.9235C9.33044 11.9882 9.99804 11.8127 10.5464 11.4285C10.8271 11.1589 11.0088 10.8028 11.0635 10.4172H12.4657C13.2044 10.4172 13.986 10.4172 14.7543 10.4763L14.8799 13.1417C13.3092 12.9505 11.7301 12.8371 10.1482 12.8018H7.15774C5.76224 12.8388 4.36748 12.92 2.97937 12.9496V10.6159C3.26009 10.5568 3.57037 10.5346 3.87326 10.5198M15.2707 10.1593C15.2633 10.0947 15.2318 10.0352 15.1825 9.9928C15.1332 9.95035 15.0698 9.92805 15.0047 9.93033C14.9461 9.93655 14.8914 9.96261 14.8496 10.0042C14.0599 9.96726 13.2849 9.90816 12.51 9.886H10.8419C10.7792 9.89054 10.72 9.91653 10.6743 9.95958C10.6286 10.0026 10.599 10.0601 10.5907 10.1224C10.5798 10.3255 10.5178 10.5226 10.4107 10.6954C10.3035 10.8683 10.1546 11.0114 9.97755 11.1116C9.56378 11.2789 9.11536 11.3423 8.67144 11.2963C8.44062 11.2932 8.2106 11.2684 7.9844 11.2224C7.79837 11.1867 7.62815 11.0937 7.49756 10.9565C7.41431 10.8511 7.35847 10.7267 7.33504 10.5945C7.30265 10.4239 7.28534 10.2509 7.28333 10.0773C7.27563 9.98539 7.23311 9.89984 7.16446 9.83819C7.0958 9.77654 7.0062 9.74344 6.91395 9.74564C5.88857 9.74564 4.86244 9.69393 3.84371 9.74564C3.38864 9.75894 2.93603 9.79834 2.48588 9.86384C2.38931 9.87956 2.30143 9.92901 2.23786 10.0034C2.17429 10.0778 2.13915 10.1723 2.13867 10.2702V12.3734C2.13867 12.8092 2.13867 13.2673 2.20516 13.7836C2.21353 14.1432 2.25047 14.5 2.31597 14.8541C2.38689 15.126 2.51839 15.3779 2.70012 15.5928C3.02886 15.958 3.48079 16.189 3.96929 16.2415C4.55365 16.2895 5.14169 16.2895 5.72604 16.2415C7.06983 16.2415 8.41288 16.2415 9.74927 16.1971C10.6498 16.1971 11.5503 16.1528 12.4509 16.1011C13.064 16.1218 13.6779 16.0745 14.2815 15.9607C14.5873 15.892 14.8651 15.7325 15.0794 15.5035C15.2951 15.2464 15.4384 14.9346 15.4923 14.6029C15.5366 14.1774 15.5366 13.7516 15.4923 13.3256L15.2707 10.1593ZM14.8873 14.4906C14.8541 14.706 14.7621 14.9079 14.6213 15.0742C14.4216 15.265 14.1586 15.3755 13.8826 15.3845C13.3916 15.4239 12.8995 15.4362 12.4066 15.4215H10.3986C8.83396 15.4215 7.26929 15.4215 5.70388 15.3845C5.16365 15.4318 4.62033 15.4318 4.08011 15.3845C3.80206 15.3597 3.5411 15.2397 3.34136 15.0447C3.24396 14.9221 3.17802 14.7775 3.14928 14.6236C3.09242 14.3193 3.063 14.0105 3.06137 13.7009V13.3832C4.60388 13.4793 6.15452 13.5605 7.7118 13.5753H10.6646C12.0822 13.5753 13.5066 13.5753 14.9168 13.627C14.9427 13.9151 14.9331 14.2047 14.8873 14.4906Z" stroke="black" stroke-width="0.4"/>
<path fill-rule="evenodd" clip-rule="evenodd" d="M9.03351 10.4549C9.11012 10.4493 9.18395 10.4238 9.24775 10.381C9.41766 10.2407 9.55064 10.0782 9.5137 9.90085C9.47676 9.72355 9.4546 9.53148 9.26991 9.47977C9.19017 9.43924 9.10004 9.42379 9.01135 9.43544C8.99271 9.42731 8.97259 9.42311 8.95225 9.42311C8.93191 9.42311 8.91179 9.42731 8.89315 9.43544C8.80302 9.43759 8.71458 9.46034 8.63459 9.50193C8.55333 9.50193 8.53855 9.61274 8.46468 9.694C8.3908 9.77527 8.42035 10.0634 8.52378 10.2407C8.58254 10.3179 8.66055 10.3783 8.75001 10.4159C8.83947 10.4535 8.93723 10.467 9.03351 10.4549ZM1.58544 7.04411C1.59049 7.07599 1.60244 7.10638 1.62046 7.13316C1.63848 7.15994 1.66213 7.18246 1.68976 7.19914C1.71739 7.21583 1.74833 7.22628 1.78042 7.22976C1.81251 7.23324 1.84497 7.22967 1.87554 7.2193C1.9061 7.20893 1.93404 7.19201 1.95738 7.16972C1.98073 7.14743 1.99892 7.12031 2.01069 7.09025C2.02246 7.0602 2.02753 7.02794 2.02553 6.99572C2.02354 6.96351 2.01453 6.93212 1.99914 6.90375L0.941985 3.76036C0.901284 3.65839 0.901284 3.54468 0.941985 3.4427C0.991081 3.34855 1.07235 3.27514 1.171 3.23585C1.39706 3.16395 1.61376 3.07037 1.8211 2.95513C1.96097 2.87337 2.08877 2.77487 2.20451 2.65963C2.64776 2.23928 2.94326 1.70073 3.38577 1.30919C3.53773 1.16946 3.71605 1.06146 3.91028 0.99153C4.10014 0.928736 4.3033 0.916177 4.4998 0.954592C4.89873 1.02108 5.29027 1.17622 5.71135 1.20577C5.92017 1.22793 6.12924 1.22793 6.33855 1.20577C6.63062 1.16583 6.9193 1.10409 7.20215 1.02108C7.29276 0.987727 7.39227 0.987727 7.48288 1.02108C7.57512 1.06196 7.64885 1.13569 7.68973 1.22793L9.11404 4.79388C9.13859 4.85358 9.18582 4.90112 9.24537 4.92605C9.30493 4.95098 9.37193 4.95126 9.4317 4.92685C9.46506 4.91717 9.49597 4.90047 9.52235 4.87787C9.54873 4.85527 9.56998 4.8273 9.58467 4.79582C9.59936 4.76434 9.60715 4.73009 9.60752 4.69535C9.6079 4.66061 9.60085 4.6262 9.58684 4.59441L8.33835 0.955331C8.23681 0.705882 8.05163 0.499544 7.81458 0.371718C7.57225 0.250967 7.29582 0.217065 7.0315 0.275681C6.82021 0.328561 6.60579 0.36804 6.38953 0.393881C6.19365 0.420199 5.99514 0.420199 5.79927 0.393881C5.31982 0.356205 4.87731 0.149355 4.42002 0.112417C4.16958 0.0902547 3.91767 0.123498 3.68127 0.208455C3.37395 0.31188 3.09027 0.474405 2.84722 0.688642C2.40397 1.09495 2.10921 1.66305 1.68074 2.10556C1.5783 2.20259 1.46748 2.28877 1.3483 2.36413C1.2104 2.4444 1.06782 2.51582 0.920561 2.57836C0.672341 2.69656 0.475834 2.9012 0.366499 3.15459C0.271063 3.40893 0.271063 3.68924 0.366499 3.94357L1.58544 7.04411ZM9.63116 7.20663C9.67259 7.24724 9.72829 7.26999 9.7863 7.26999C9.84431 7.26999 9.90001 7.24724 9.94144 7.20663C10.3773 6.83726 10.6794 6.60086 10.9232 6.37923C11.167 6.15835 11.1892 6.11402 11.3074 5.98843C11.4256 5.86285 11.5364 5.72248 11.6539 5.56735C11.7721 5.41221 12.0232 5.07312 12.2892 4.71187L12.5987 4.97044C12.8056 5.14035 13.0715 5.34646 13.3375 5.55331L13.5362 5.71584L13.1373 6.07782C13.0703 6.14924 13.0087 6.22533 12.9526 6.3061C12.8969 6.38046 12.8477 6.45926 12.8048 6.5425C12.731 6.69025 12.6719 6.87493 12.5396 7.19186C12.5149 7.2382 12.5074 7.29183 12.5185 7.34318C12.5296 7.39452 12.5586 7.44025 12.6004 7.47219C12.6421 7.50414 12.6938 7.52023 12.7462 7.5176C12.7987 7.51496 12.8485 7.49377 12.8868 7.45781C13.1602 7.24357 13.3227 7.13276 13.4409 7.01456C13.5138 6.9461 13.5776 6.86976 13.6322 6.78555C13.6879 6.7033 13.7371 6.61711 13.78 6.52698C13.8317 6.42356 13.8834 6.29058 13.9647 6.09925C14.0876 6.20933 14.1791 6.35012 14.2297 6.50719C14.2804 6.66426 14.2883 6.83197 14.2528 6.99313C14.2397 7.05204 14.2483 7.11367 14.2769 7.16677C14.3056 7.21987 14.3524 7.26088 14.4088 7.28231C14.4652 7.30374 14.5274 7.30416 14.5841 7.28348C14.6408 7.2628 14.6881 7.22241 14.7175 7.1697C14.8169 6.92741 14.8501 6.66305 14.8138 6.40369C14.7774 6.14433 14.6728 5.89929 14.5106 5.69367C14.4414 5.58094 14.3623 5.47463 14.2742 5.37601C14.5702 5.19379 14.8411 4.97955 15.0868 4.7333C15.2319 4.59513 15.3674 4.44729 15.4924 4.29079C15.6008 4.12974 15.6993 3.96229 15.7879 3.78844C15.9363 3.48169 16.0599 3.16349 16.1573 2.83693H16.2312C16.5706 2.78437 16.8792 2.6098 17.0991 2.34595C17.319 2.08211 17.4352 1.7471 17.4257 1.40375C17.467 1.07424 17.376 0.741799 17.1728 0.479168C16.9695 0.216536 16.6706 0.0450921 16.3412 0.00234344C16.281 -0.00524506 16.2202 0.010626 16.1713 0.0466684H16.127C15.8366 0.0836495 15.5573 0.181851 15.3077 0.334781C15.0436 0.512799 14.8441 0.771406 14.7389 1.07205C14.6713 1.24855 14.6535 1.44017 14.6872 1.62612C14.4293 1.80342 14.1708 1.9881 13.9492 2.18757C13.794 2.30613 13.6485 2.4368 13.514 2.57836C13.3742 2.71823 13.2461 2.86845 13.1299 3.029C12.906 3.32524 12.7088 3.64216 12.5396 3.97312L12.3771 3.87709C12.0968 3.70683 11.7811 3.6032 11.4544 3.5742C11.218 3.5609 10.9816 3.62296 10.7821 3.7515C10.7307 3.77845 10.6919 3.82451 10.6741 3.87977C10.6563 3.93503 10.6608 3.99508 10.6868 4.047C10.7149 4.09727 10.7615 4.13464 10.8166 4.15118C10.8718 4.16773 10.9312 4.16216 10.9823 4.13565C11.1143 4.09224 11.2567 4.09224 11.3886 4.13565C11.5556 4.17997 11.71 4.26345 11.8385 4.37944C11.5135 4.66016 11.2623 4.86701 11.0998 5.0517C10.9373 5.23565 10.8265 5.30952 10.7083 5.4425C10.5725 5.56498 10.4445 5.69574 10.3248 5.83404C10.1254 6.09999 9.92592 6.43168 9.58684 6.90375C9.56097 6.93792 9.54594 6.97906 9.5437 7.02186C9.54147 7.06467 9.55212 7.10715 9.57428 7.14384C9.58905 7.16846 9.60802 7.1894 9.63116 7.20663ZM15.3816 1.30033C15.4039 1.08841 15.4977 0.890394 15.6475 0.738877C15.8189 0.608118 16.0184 0.517252 16.2312 0.473666H16.2895C16.4609 0.53434 16.6038 0.656049 16.691 0.815513C16.7783 0.974977 16.8036 1.161 16.7623 1.338C16.7561 1.50159 16.6916 1.65757 16.5805 1.77784C16.4695 1.89811 16.3191 1.97477 16.1565 1.99401C16.0558 1.99464 15.956 1.97464 15.8632 1.93526C15.7705 1.89587 15.6868 1.83793 15.6173 1.765C15.5396 1.7091 15.4772 1.6345 15.436 1.54811C15.3949 1.46172 15.3761 1.36633 15.3816 1.27078V1.30033ZM13.7135 3.54613C13.8465 3.42054 13.9721 3.28756 14.0976 3.15459L14.4737 2.74828L14.9391 2.21712C14.9588 2.25701 14.9834 2.29395 15.013 2.32793C15.1629 2.49784 15.3498 2.63082 15.5589 2.71947C15.3373 3.06668 15.0935 3.40576 14.8201 3.74559L14.5025 4.20361C14.3924 4.3654 14.3038 4.52793 14.1929 4.67568C14.0821 4.82343 14.0156 4.88991 13.927 4.99334L13.8457 4.90469C13.5798 4.67568 13.2998 4.4836 13.1077 4.31369L12.9969 4.23981C13.2333 4.00341 13.4771 3.78179 13.7135 3.54539" fill="black"/>
<path d="M13.7135 3.54613C13.8465 3.42054 13.9721 3.28756 14.0976 3.15459L14.4737 2.74828L14.9391 2.21712C14.9588 2.25701 14.9834 2.29395 15.013 2.32793C15.1629 2.49784 15.3498 2.63082 15.5589 2.71947C15.3373 3.06668 15.0935 3.40576 14.8201 3.74559L14.5025 4.20361C14.3924 4.3654 14.3038 4.52793 14.1929 4.67568C14.0821 4.82343 14.0156 4.88991 13.927 4.99334L13.8457 4.90469C13.5798 4.67568 13.2998 4.4836 13.1077 4.31369L12.9969 4.23981C13.2333 4.00341 13.4771 3.78179 13.7135 3.54539M9.03351 10.4549C9.11012 10.4493 9.18395 10.4238 9.24775 10.381C9.41766 10.2407 9.55064 10.0782 9.5137 9.90085C9.47676 9.72355 9.4546 9.53148 9.26991 9.47977C9.19017 9.43924 9.10004 9.42379 9.01135 9.43544C8.99271 9.42731 8.97259 9.42311 8.95225 9.42311C8.93191 9.42311 8.91179 9.42731 8.89315 9.43544C8.80302 9.43759 8.71458 9.46034 8.63459 9.50193C8.55333 9.50193 8.53855 9.61274 8.46468 9.694C8.3908 9.77527 8.42035 10.0634 8.52378 10.2407C8.58254 10.3179 8.66055 10.3783 8.75001 10.4159C8.83947 10.4535 8.93723 10.467 9.03351 10.4549ZM1.58544 7.04411C1.59049 7.07599 1.60244 7.10638 1.62046 7.13316C1.63848 7.15994 1.66213 7.18246 1.68976 7.19914C1.71739 7.21583 1.74833 7.22628 1.78042 7.22976C1.81251 7.23324 1.84497 7.22967 1.87554 7.2193C1.9061 7.20893 1.93404 7.19201 1.95738 7.16972C1.98073 7.14743 1.99892 7.12031 2.01069 7.09025C2.02246 7.0602 2.02753 7.02794 2.02553 6.99572C2.02354 6.96351 2.01453 6.93212 1.99914 6.90375L0.941985 3.76036C0.901284 3.65839 0.901284 3.54468 0.941985 3.4427C0.991081 3.34855 1.07235 3.27514 1.171 3.23585C1.39706 3.16395 1.61376 3.07037 1.8211 2.95513C1.96097 2.87337 2.08877 2.77487 2.20451 2.65963C2.64776 2.23928 2.94326 1.70073 3.38577 1.30919C3.53773 1.16946 3.71605 1.06146 3.91028 0.99153C4.10014 0.928736 4.3033 0.916177 4.4998 0.954592C4.89873 1.02108 5.29027 1.17622 5.71135 1.20577C5.92017 1.22793 6.12924 1.22793 6.33855 1.20577C6.63062 1.16583 6.9193 1.10409 7.20215 1.02108C7.29276 0.987727 7.39227 0.987727 7.48288 1.02108C7.57512 1.06196 7.64885 1.13569 7.68973 1.22793L9.11404 4.79388C9.13859 4.85358 9.18582 4.90112 9.24537 4.92605C9.30493 4.95098 9.37193 4.95126 9.4317 4.92685C9.46506 4.91717 9.49597 4.90047 9.52235 4.87787C9.54873 4.85527 9.56998 4.8273 9.58467 4.79582C9.59936 4.76434 9.60715 4.73009 9.60753 4.69535C9.6079 4.66062 9.60085 4.6262 9.58684 4.59441L8.33835 0.955331C8.23681 0.705882 8.05163 0.499544 7.81458 0.371718C7.57225 0.250967 7.29582 0.217065 7.0315 0.275681C6.82021 0.328561 6.60579 0.36804 6.38953 0.393881C6.19365 0.420199 5.99514 0.420199 5.79927 0.393881C5.31982 0.356205 4.87731 0.149355 4.42002 0.112417C4.16958 0.0902547 3.91767 0.123498 3.68127 0.208455C3.37395 0.31188 3.09027 0.474405 2.84722 0.688642C2.40397 1.09495 2.10921 1.66305 1.68074 2.10556C1.5783 2.20259 1.46748 2.28877 1.3483 2.36413C1.2104 2.4444 1.06782 2.51582 0.920561 2.57836C0.672341 2.69656 0.475834 2.9012 0.366499 3.15459C0.271063 3.40893 0.271063 3.68924 0.366499 3.94357L1.58544 7.04411ZM9.63116 7.20663C9.67259 7.24724 9.72829 7.26999 9.7863 7.26999C9.84431 7.26999 9.90001 7.24724 9.94144 7.20663C10.3773 6.83726 10.6794 6.60086 10.9232 6.37923C11.167 6.15835 11.1892 6.11402 11.3074 5.98843C11.4256 5.86285 11.5364 5.72248 11.6539 5.56735C11.7721 5.41221 12.0232 5.07312 12.2892 4.71187L12.5987 4.97044C12.8056 5.14035 13.0715 5.34646 13.3375 5.55331L13.5362 5.71584L13.1373 6.07782C13.0703 6.14924 13.0087 6.22533 12.9526 6.3061C12.8969 6.38046 12.8477 6.45926 12.8048 6.5425C12.731 6.69025 12.6719 6.87493 12.5396 7.19186C12.5149 7.2382 12.5074 7.29183 12.5185 7.34318C12.5296 7.39452 12.5586 7.44025 12.6004 7.47219C12.6421 7.50414 12.6938 7.52023 12.7462 7.5176C12.7987 7.51496 12.8485 7.49377 12.8868 7.45781C13.1602 7.24357 13.3227 7.13276 13.4409 7.01456C13.5138 6.9461 13.5776 6.86976 13.6322 6.78555C13.6879 6.7033 13.7371 6.61711 13.78 6.52698C13.8317 6.42356 13.8834 6.29058 13.9647 6.09925C14.0876 6.20933 14.1791 6.35012 14.2297 6.50719C14.2804 6.66426 14.2883 6.83197 14.2528 6.99313C14.2397 7.05204 14.2483 7.11367 14.2769 7.16677C14.3056 7.21987 14.3524 7.26088 14.4088 7.28231C14.4652 7.30374 14.5274 7.30416 14.5841 7.28348C14.6408 7.2628 14.6881 7.22241 14.7175 7.1697C14.8169 6.92741 14.8501 6.66305 14.8138 6.40369C14.7774 6.14433 14.6728 5.89929 14.5106 5.69367C14.4414 5.58094 14.3623 5.47463 14.2742 5.37601C14.5702 5.19379 14.8411 4.97955 15.0868 4.7333C15.2319 4.59513 15.3674 4.44729 15.4924 4.29079C15.6008 4.12974 15.6993 3.96229 15.7879 3.78844C15.9363 3.48169 16.0599 3.16349 16.1573 2.83693H16.2312C16.5706 2.78437 16.8792 2.6098 17.0991 2.34595C17.319 2.08211 17.4352 1.7471 17.4257 1.40375C17.467 1.07424 17.376 0.741799 17.1728 0.479168C16.9695 0.216536 16.6706 0.0450921 16.3412 0.00234344C16.281 -0.00524506 16.2202 0.010626 16.1713 0.0466684H16.127C15.8366 0.0836495 15.5573 0.181851 15.3077 0.334781C15.0436 0.512799 14.8441 0.771406 14.7389 1.07205C14.6713 1.24855 14.6535 1.44017 14.6872 1.62612C14.4293 1.80342 14.1708 1.9881 13.9492 2.18757C13.794 2.30613 13.6485 2.4368 13.514 2.57836C13.3742 2.71823 13.2461 2.86845 13.1299 3.029C12.906 3.32524 12.7088 3.64216 12.5396 3.97312L12.3771 3.87709C12.0968 3.70683 11.7811 3.6032 11.4544 3.5742C11.218 3.5609 10.9816 3.62296 10.7821 3.7515C10.7307 3.77845 10.6919 3.82451 10.6741 3.87977C10.6563 3.93503 10.6608 3.99508 10.6868 4.047C10.7149 4.09727 10.7615 4.13464 10.8166 4.15118C10.8718 4.16773 10.9312 4.16216 10.9823 4.13565C11.1143 4.09224 11.2567 4.09224 11.3886 4.13565C11.5556 4.17997 11.71 4.26345 11.8385 4.37944C11.5135 4.66016 11.2623 4.86701 11.0998 5.0517C10.9373 5.23565 10.8265 5.30952 10.7083 5.4425C10.5725 5.56498 10.4445 5.69574 10.3248 5.83404C10.1254 6.09999 9.92592 6.43168 9.58684 6.90375C9.56097 6.93792 9.54594 6.97906 9.5437 7.02186C9.54147 7.06467 9.55212 7.10715 9.57428 7.14384C9.58905 7.16846 9.60802 7.1894 9.63116 7.20663ZM15.3816 1.30033C15.4039 1.08841 15.4977 0.890394 15.6475 0.738877C15.8189 0.608118 16.0184 0.517252 16.2312 0.473666H16.2895C16.4609 0.53434 16.6038 0.656049 16.691 0.815513C16.7783 0.974977 16.8036 1.161 16.7623 1.338C16.7561 1.50159 16.6916 1.65757 16.5805 1.77784C16.4695 1.89811 16.3191 1.97477 16.1565 1.99401C16.0558 1.99464 15.956 1.97464 15.8632 1.93526C15.7705 1.89587 15.6868 1.83793 15.6173 1.765C15.5396 1.7091 15.4772 1.6345 15.436 1.54811C15.3949 1.46172 15.3761 1.36633 15.3816 1.27078V1.30033Z" stroke="black" stroke-width="0.4"/>
<path fill-rule="evenodd" clip-rule="evenodd" d="M2.94268 4.32019L3.4007 3.93604C3.62233 3.69226 3.8144 3.42631 4.05745 3.19803C4.1727 3.09091 4.30863 3.00817 4.45638 2.95425C4.62777 2.9114 4.80802 2.9114 4.98015 2.95425C5.33475 3.00596 5.66719 3.14632 6.05799 3.19064C6.17816 3.20542 6.29882 3.20542 6.41997 3.19064C6.53916 3.17686 6.6549 3.14731 6.76719 3.102C6.78884 3.09108 6.81275 3.0854 6.837 3.0854C6.86125 3.0854 6.88516 3.09108 6.90681 3.102C6.93318 3.1086 6.95793 3.12052 6.97952 3.13704C7.00112 3.15355 7.01911 3.17431 7.0324 3.19803C7.23925 3.61173 7.43132 4.02543 7.6234 4.43839C7.81473 4.85209 7.99942 5.28722 8.17672 5.70831C8.20567 5.76192 8.25312 5.80318 8.31023 5.82441C8.36734 5.84564 8.43022 5.84539 8.48716 5.8237C8.54409 5.802 8.59121 5.76036 8.61972 5.70651C8.64823 5.65266 8.6562 5.59029 8.64213 5.53101L7.66698 2.86633C7.57874 2.65028 7.40885 2.47773 7.19418 2.38615C6.97406 2.29721 6.72801 2.29721 6.50788 2.38615H6.16806C5.70339 2.31227 5.31997 2.1202 4.8915 2.08326C4.6294 2.06671 4.36678 2.10626 4.12117 2.19925C3.87556 2.29225 3.65261 2.43656 3.46719 2.62255C3.22926 2.88458 3.00724 3.16063 2.80231 3.44921L2.48465 3.7521C2.3456 3.87783 2.24776 4.04262 2.20393 4.2249C2.14557 4.40958 2.14557 4.60757 2.20393 4.79226L3.18646 7.00703C3.21355 7.0522 3.25584 7.08625 3.30576 7.10307C3.35567 7.11989 3.40994 7.11838 3.45884 7.09882C3.50775 7.07926 3.54809 7.04292 3.57263 6.99632C3.59717 6.94972 3.60431 6.89589 3.59278 6.8445L2.85403 4.56398C2.84343 4.51913 2.84618 4.47216 2.86193 4.42884C2.87768 4.38553 2.90575 4.34776 2.94268 4.32019Z" fill="black" stroke="black" stroke-width="0.4"/>
</g>
<defs>
<clipPath id="clip0_12_810">
<rect width="17.73" height="17.73" fill="white"/>
</clipPath>
</defs>
</svg>
