  <svg
                xmlns="http://www.w3.org/2000/svg"
                width="20"
                height="19"
                viewBox="0 0 20 19"
                fill="none"
              >
                <path
                  d="M7.73656 1.38197C8.33526 -0.460655 10.9421 -0.460658 11.5408 1.38196L12.4451 4.16515C12.7128 4.98919 13.4808 5.54712 14.3472 5.54712H17.2736C19.2111 5.54712 20.0166 8.02635 18.4492 9.16515L16.0817 10.8853C15.3807 11.3945 15.0874 12.2973 15.3551 13.1213L16.2594 15.9045C16.8582 17.7471 14.7492 19.2794 13.1818 18.1406L10.8142 16.4205C10.1133 15.9112 9.16408 15.9112 8.4631 16.4205L6.09558 18.1406C4.52815 19.2794 2.41919 17.7471 3.0179 15.9045L3.92221 13.1213C4.18996 12.2973 3.89664 11.3945 3.19567 10.8853L0.828146 9.16515C-0.739282 8.02635 0.0662723 5.54712 2.00372 5.54712H4.93014C5.79659 5.54712 6.5645 4.98919 6.83225 4.16515L7.73656 1.38197Z"
                  fill="#F59E0B"
                />
              </svg>