<svg width="18" height="19" viewBox="0 0 18 19" fill="none" xmlns="http://www.w3.org/2000/svg">
<path d="M2.79522 7.8292L0.603219 6.5772C0.481885 6.51053 0.384219 6.41387 0.310219 6.2872C0.236219 6.1592 0.199219 6.02153 0.199219 5.8742V3.3712C0.199219 3.22453 0.236219 3.08753 0.310219 2.9602C0.384219 2.83287 0.481885 2.7362 0.603219 2.6702L2.79522 1.4172C2.91522 1.3472 3.04889 1.3122 3.19622 1.3122C3.34289 1.3122 3.47855 1.3472 3.60322 1.4172L5.79522 2.6702C5.91655 2.73687 6.01422 2.83387 6.08822 2.9612C6.16222 3.08853 6.19922 3.2252 6.19922 3.3712V5.8752C6.19922 6.02187 6.16222 6.15887 6.08822 6.2862C6.01422 6.41353 5.91655 6.51053 5.79522 6.5772L3.60322 7.8292C3.48322 7.89987 3.34955 7.9352 3.20222 7.9352C3.05555 7.9352 2.91989 7.89987 2.79522 7.8292ZM3.19922 6.9002L5.19922 5.7622V3.4852L3.19922 2.3462L1.19922 3.4852V5.7622L3.19922 6.9002ZM13.4692 8.1292V6.9772L15.3912 8.1062C15.6472 8.25287 15.8459 8.44953 15.9872 8.6962C16.1286 8.94287 16.1992 9.20587 16.1992 9.4852V14.0692C16.1992 14.3492 16.1286 14.6125 15.9872 14.8592C15.8459 15.1059 15.6472 15.3022 15.3912 15.4482L11.5072 17.7162C11.2506 17.8609 10.9802 17.9332 10.6962 17.9332C10.4122 17.9332 10.1439 17.8609 9.89122 17.7162L6.00722 15.4482C5.75122 15.3015 5.55255 15.1049 5.41122 14.8582C5.26989 14.6129 5.19922 14.3502 5.19922 14.0702V9.4862C5.19922 9.2062 5.26989 8.94287 5.41122 8.6962C5.55255 8.44953 5.75122 8.25287 6.00722 8.1062L7.93022 6.9782V8.1302L6.19922 9.1392V14.4182L10.6992 17.0282L15.1992 14.4182V9.1382L13.4692 8.1292ZM11.1992 5.2002V10.7002C11.1992 10.8422 11.1512 10.9609 11.0552 11.0562C10.9592 11.1515 10.8402 11.1995 10.6982 11.2002C10.5562 11.2009 10.4376 11.1529 10.3422 11.0562C10.2469 10.9595 10.1992 10.8409 10.1992 10.7002V1.0082C10.1992 0.779533 10.2766 0.587533 10.4312 0.4322C10.5859 0.276866 10.7779 0.199533 11.0072 0.2002H16.6902C17.0069 0.2002 17.2442 0.343199 17.4022 0.629199C17.5609 0.9152 17.5489 1.19287 17.3662 1.4622L16.8432 2.2462C16.7526 2.38287 16.7072 2.53287 16.7072 2.6962C16.7072 2.85953 16.7526 3.0122 16.8432 3.1542L17.3662 3.9392C17.5482 4.20787 17.5602 4.4852 17.4022 4.7712C17.2442 5.0572 17.0069 5.2002 16.6902 5.2002H11.1992Z" fill="black" stroke="black" stroke-width="0.4"/>
<path d="M11.6992 4.2002V1.2002H15.6992L14.6992 2.7002L15.6992 4.2002H11.6992Z" fill="#F7D3D3" stroke="white" stroke-width="0.3" stroke-linejoin="round"/>
</svg>
